<?xml version="1.0" encoding="utf-8"?>
<!-- Generator: Adobe Illustrator 26.4.1, SVG Export Plug-In . SVG Version: 6.00 Build 0)  -->
<svg version="1.1" id="Layer_1" xmlns="http://www.w3.org/2000/svg" xmlns:xlink="http://www.w3.org/1999/xlink" x="0px" y="0px"
	 viewBox="0 0 273.1 143.8" style="enable-background:new 0 0 273.1 143.8;" xml:space="preserve">
<style type="text/css">
	.st0{fill:#FFFFFF;}
</style>
<path class="st0" d="M273.1,105.5c0-15.3-8.3-22.4-23.4-22.4c-7.7,0-14.6,2.6-19.2,6.5v-5.9h-5.9v60.1h6.3V123
	c4.4,3.8,11,6.4,18.2,6.4C264.4,129.4,273.1,121,273.1,105.5L273.1,105.5z M266.8,105.6c0,11.7-6.4,18.6-18.5,18.6
	c-6.8,0-13.4-2.6-17.3-6.9V95c4.2-4,10.5-6.6,17.9-6.6C260.4,88.4,266.8,93.7,266.8,105.6L266.8,105.6z"/>
<path class="st0" d="M58.7,128.8V98H34.3v5.4H52v16.5c-4.1,2-10.9,4-19.6,4c-16.5,0-25.8-8.1-25.8-24.1c0-15.4,9.7-22.9,28.7-22.9
	c11.1,0,19,2.5,23.5,4.5v-5.9c-4-2.1-12.1-4.4-23.6-4.4C11.7,71.1,0,80.6,0,99.8c0,18.8,10.9,29.7,31.1,29.7
	c9.5,0,17.1-2.5,21.6-4.7v4.1h6V128.8z"/>
<path class="st0" d="M99.2,83.1c-10,0-16.8,2.4-21.9,5.1v-4.5h-5.9v45.1h6.3V93.4c4.4-2.2,10.7-4.7,21.5-4.7L99.2,83.1L99.2,83.1z"
	/>
<path class="st0" d="M165,115c0,10.1,6.2,14.3,18.5,14.3c9.8,0,16.7-2.5,21.7-4.7v4.1h6.3V83.6h-6.3v35.8c-4.2,2-10.4,4.6-20.3,4.6
	c-9.1,0-13.6-2.8-13.6-10.1V83.8h-6.2V115H165z"/>
<path class="st0" d="M128.4,129.4c16.4,0,25.5-8.6,25.5-23.9c0-14.8-8.9-22.4-25.5-22.4s-25.5,7.6-25.5,22.4
	C102.9,120.7,112.1,129.4,128.4,129.4 M128.4,88.2c12.6,0,19.3,5.6,19.3,17.3c0,11.9-7.1,18.8-19.3,18.8s-19.2-7-19.2-18.8
	C109.2,93.8,115.8,88.2,128.4,88.2"/>
<path class="st0" d="M148.1,0h-12.9l-25.3,56.2h11.8l4.7-11h29.9l4.9,11h12.1L148.1,0L148.1,0z M130,36.4l11.4-25.9l11.3,25.9H130
	L130,36.4z"/>
<polygon class="st0" points="100.8,56.2 90.1,56.2 90.2,55.4 90.5,14.3 69.3,53.5 58.3,53.5 37.2,14.4 37.6,56.2 26.9,56.2 
	26.9,0.2 40.9,0.2 41.1,0.6 64.1,43.5 87,0.2 100.8,0.2 "/>
<polygon class="st0" points="12,56.2 0.9,56.2 0.9,0.2 12,0.2 "/>
</svg>
