<?xml version="1.0" standalone="no"?>
<!DOCTYPE svg PUBLIC "-//W3C//DTD SVG 20010904//EN"
 "http://www.w3.org/TR/2001/REC-SVG-20010904/DTD/svg10.dtd">
<svg version="1.0" xmlns="http://www.w3.org/2000/svg"
 width="1272.000000pt" height="1272.000000pt" viewBox="0 0 1272.000000 1272.000000"
 preserveAspectRatio="xMidYMid meet">
<metadata>
Created by potrace 1.14, written by Peter Selinger 2001-2017
</metadata>
<g transform="translate(0.000000,1272.000000) scale(0.100000,-0.100000)"
fill="#000000" stroke="none">
<path d="M1417 7523 l-1407 -1408 0 -1167 0 -1168 1168 0 1167 0 1159 1160
c638 638 1166 1160 1173 1160 10 0 11 -5 3 -19 -7 -14 -7 -22 0 -26 6 -4 7
-11 4 -17 -5 -8 -9 -1715 -3 -1743 1 -5 0 -14 -1 -20 -6 -25 -4 -137 2 -141 4
-3 5 -11 1 -20 -3 -8 -6 -87 -7 -174 l-1 -160 1169 0 1169 0 1178 1181 1179
1182 0 -1182 0 -1181 999 0 999 0 676 676 676 676 0 1899 0 1899 -2614 0
-2613 0 -1164 -1164 c-640 -641 -1165 -1163 -1168 -1161 -2 3 -4 527 -4 1165
l0 1160 -1167 0 -1166 0 -1407 -1407z"/>
</g>
</svg>
