<?xml version="1.0" encoding="utf-8"?>
<!-- Generator: Adobe Illustrator 26.4.0, SVG Export Plug-In . SVG Version: 6.00 Build 0)  -->
<svg version="1.1" id="Layer_1" xmlns="http://www.w3.org/2000/svg" xmlns:xlink="http://www.w3.org/1999/xlink" x="0px" y="0px"
	 viewBox="0 0 841.9 595.3" style="enable-background:new 0 0 841.9 595.3;" xml:space="preserve">
<style type="text/css">
	.st0{fill:#FFAD39;}
	.st1{fill:#13161D;}
</style>
<polygon class="st0" points="349.4,259.1 318.3,317.8 286.8,259.1 267,259.1 267,336.5 282.6,336.5 281.9,280.6 310.2,332.8 
	325.7,332.8 354,280.4 353.5,336.5 368.9,336.5 368.9,259.1 "/>
<rect x="386.5" y="259.1" class="st0" width="15.9" height="77.4"/>
<polygon class="st0" points="412.8,259.1 412.8,273 442.6,273 442.6,336.5 458.7,336.5 458.7,273 488.6,273 488.6,259.1 "/>
<polygon class="st0" points="563.7,259.1 538.3,293.3 513.3,259.1 493.7,259.1 530,306.2 530,336.5 546.1,336.5 546.1,306.2 
	582.6,259.1 "/>
<path class="st0" d="M214.1,274.7l14.8,33.9h-29.7L214.1,274.7z M205.3,258.8l-34.9,77.6h17l6.5-15.1h22.3l12.8-12.8l11.9,27.8h17.5
	l-34.5-76.8l-0.4-0.9H205.3z"/>
<path class="st1" d="M642.1,278.6v-13.8h16c4.7,0,6.7,2.5,6.7,6.6c0,4-2.2,7.1-7,7.1H642.1z M642.1,297.8V284h15.5
	c8.7,0,13.9-3.9,13.9-12.6c0-8.6-4.9-12.1-13.5-12.1h-22.6v38.5H642.1z M607,264.6l8.9,20.3h-17.8L607,264.6z M621.4,297.8h7.4
	l-17.4-38.7H603l-17.4,38.7h7.1l3.3-7.8h21.9L621.4,297.8z"/>
</svg>
